<svg width="480" height="480" viewBox="0 0 480 480" fill="none" xmlns="http://www.w3.org/2000/svg">
<g clip-path="url(#clip0_6_343)">
<path d="M2 0H803V737H2V0Z" fill="white"/>
<path d="M2 0H1100V810H2V0Z" fill="white"/>
<g clip-path="url(#clip1_6_343)">
<rect width="855.451" height="541" transform="translate(-141 -45)" fill="#F4F4E9"/>
<rect x="-15.406" y="-1.79589" width="125.594" height="125.594" rx="13.8587" stroke="#DDDDDD" stroke-width="1.29925"/>
<rect x="110.188" y="-1.79589" width="125.594" height="125.594" rx="13.8587" stroke="#DDDDDD" stroke-width="1.29925"/>
<rect x="235.782" y="-1.79594" width="125.594" height="125.594" rx="13.8587" stroke="#DDDDDD" stroke-width="1.29925"/>
<rect x="361.376" y="-1.79594" width="125.594" height="125.594" rx="13.8587" stroke="#DDDDDD" stroke-width="1.29925"/>
<rect x="-15.406" y="123.798" width="125.594" height="125.594" rx="13.8587" stroke="#DDDDDD" stroke-width="1.29925"/>
<rect x="110.188" y="123.798" width="125.594" height="125.594" rx="13.8587" stroke="#DDDDDD" stroke-width="1.29925"/>
<rect x="235.782" y="123.798" width="125.594" height="125.594" rx="13.8587" stroke="#DDDDDD" stroke-width="1.29925"/>
<rect x="361.376" y="123.798" width="125.594" height="125.594" rx="13.8587" stroke="#DDDDDD" stroke-width="1.29925"/>
<rect x="-15.406" y="249.393" width="125.594" height="125.594" rx="13.8587" stroke="#DDDDDD" stroke-width="1.29925"/>
<rect x="110.188" y="249.393" width="125.594" height="125.594" rx="13.8587" stroke="#DDDDDD" stroke-width="1.29925"/>
<rect x="235.782" y="249.393" width="125.594" height="125.594" rx="13.8587" stroke="#DDDDDD" stroke-width="1.29925"/>
<rect x="361.376" y="249.393" width="125.594" height="125.594" rx="13.8587" stroke="#DDDDDD" stroke-width="1.29925"/>
<rect x="-15.406" y="374.986" width="125.594" height="125.594" rx="13.8587" stroke="#DDDDDD" stroke-width="1.29925"/>
<rect x="110.188" y="374.986" width="125.594" height="125.594" rx="13.8587" stroke="#DDDDDD" stroke-width="1.29925"/>
<rect x="235.782" y="374.986" width="125.594" height="125.594" rx="13.8587" stroke="#DDDDDD" stroke-width="1.29925"/>
<rect x="361.376" y="374.986" width="125.594" height="125.594" rx="13.8587" stroke="#DDDDDD" stroke-width="1.29925"/>
<path d="M361.376 -116.996V-15.6541C361.376 -8.00021 367.581 -1.79548 375.235 -1.79548H473.112C480.766 -1.79548 486.97 4.40924 486.97 12.0632V109.94C486.97 117.594 493.175 123.799 500.829 123.799H598.706C606.36 123.799 612.564 130.003 612.564 137.657V235.534C612.564 243.188 618.769 249.393 626.423 249.393H724.3C731.954 249.393 738.158 255.597 738.158 263.251V361.128C738.158 368.782 744.363 374.987 752.017 374.987H853.358M235.782 -116.996V-15.6541C235.782 -8.00021 241.987 -1.79548 249.641 -1.79548H347.518C355.172 -1.79548 361.376 4.40924 361.376 12.0632V109.94C361.376 117.594 367.581 123.799 375.235 123.799H473.112C480.766 123.799 486.97 130.003 486.97 137.657V235.534C486.97 243.188 480.766 249.393 473.112 249.393H375.235C367.581 249.393 361.376 243.188 361.376 235.534V135.925L361.255 135.106C360.325 128.829 354.997 124.142 348.653 124.02L337.124 123.799H249.641C241.987 123.799 235.782 130.003 235.782 137.657V235.534C235.782 243.188 241.987 249.393 249.641 249.393H348.384L351.674 249.612C357.134 249.976 361.376 254.511 361.376 259.983V270.614M361.376 259.787V361.128C361.376 368.782 367.581 374.987 375.235 374.987H473.112C480.766 374.987 486.97 381.191 486.97 388.845V486.722C486.97 494.376 493.175 500.581 500.829 500.581H598.706C606.36 500.581 612.564 506.785 612.564 514.439V612.316C612.564 619.97 618.769 626.175 626.423 626.175H724.3C731.954 626.175 738.158 632.379 738.158 640.033V737.91C738.158 745.564 744.363 751.769 752.017 751.769H853.358" stroke="url(#paint0_linear_6_343)" stroke-opacity="0.8" stroke-width="1.29925"/>
<rect x="-141" y="659.193" width="704.193" height="376.782" transform="rotate(-90 -141 659.193)" fill="url(#paint1_linear_6_343)"/>
<rect x="563.193" y="751.873" width="704.193" height="376.782" transform="rotate(-180 563.193 751.873)" fill="url(#paint2_linear_6_343)"/>
<ellipse cx="350.982" cy="-129.884" rx="468.596" ry="399.302" fill="url(#paint3_radial_6_343)"/>
</g>
<g filter="url(#filter0_d_6_343)">
<path d="M245.558 289.269V175.95C245.558 168.999 239.695 163.359 232.442 163.359H114.401C107.148 163.359 101.286 168.999 101.286 175.95V289.269C101.286 296.22 107.148 301.86 114.401 301.86H232.442C239.695 301.86 245.558 296.22 245.558 289.269ZM179.979 264.087H153.747C146.495 264.087 140.632 258.446 140.632 251.496C140.632 244.546 146.495 238.905 153.747 238.905H179.979C187.232 238.905 193.095 244.546 193.095 251.496C193.095 258.446 187.232 264.087 179.979 264.087ZM193.095 226.314H153.747C146.495 226.314 140.632 220.673 140.632 213.723C140.632 206.773 146.495 201.132 153.747 201.132H193.095C200.347 201.132 206.21 206.773 206.21 213.723C206.21 220.673 200.348 226.314 193.095 226.314Z" fill="#3D70F1"/>
<path d="M164.334 142.552C191.899 116.943 254.046 112.301 293.879 128.584L289.502 129.989C281.983 132.399 277.922 140.196 280.433 147.415C282.428 153.187 288.024 156.837 294.036 156.837C295.543 156.837 297.064 156.603 298.571 156.121L331.086 145.72C331.244 145.666 331.358 145.542 331.516 145.486C332.363 145.183 333.08 144.646 333.87 144.177C334.745 143.668 335.649 143.227 336.367 142.565C336.496 142.455 336.654 142.414 336.783 142.304C337.27 141.822 337.472 141.216 337.873 140.679C338.49 139.88 339.122 139.136 339.552 138.227C339.939 137.4 340.083 136.532 340.284 135.665C340.485 134.81 340.743 134.012 340.771 133.144C340.815 132.124 340.585 131.16 340.398 130.155C340.269 129.535 340.369 128.915 340.154 128.295L325.805 86.9692C323.294 79.7507 315.258 75.839 307.653 78.263C300.149 80.6599 296.087 88.4705 298.584 95.689L300.636 101.557C250.301 82.8502 179.831 89.82 144.374 122.757C138.692 128.033 138.534 136.766 144.044 142.235C149.569 147.69 158.638 147.856 164.334 142.552Z" fill="#1B1B1B"/>
<path d="M316.453 336.079C288.888 361.688 226.742 366.33 186.908 350.047L201.832 345.267C209.336 342.87 213.397 335.06 210.901 327.841C208.39 320.637 200.325 316.711 192.749 319.135L149.701 332.91C149.529 332.965 149.428 333.089 149.27 333.144C148.366 333.461 147.606 334.026 146.774 334.522C145.956 335.018 145.109 335.431 144.42 336.064C144.291 336.175 144.133 336.202 144.004 336.326C143.516 336.808 143.315 337.414 142.913 337.951C142.297 338.75 141.665 339.494 141.234 340.403C140.847 341.229 140.704 342.097 140.503 342.965C140.302 343.805 140.043 344.605 140.015 345.486C139.972 346.506 140.201 347.47 140.388 348.475C140.517 349.095 140.417 349.715 140.633 350.335L154.982 391.661C156.991 397.433 162.572 401.083 168.585 401.083C170.091 401.083 171.612 400.863 173.134 400.367C180.638 397.97 184.699 390.159 182.203 382.941L180.15 377.072C198.403 383.85 219.209 387.363 240.13 387.363C276.922 387.363 313.799 376.866 336.414 355.872C342.096 350.596 342.254 341.863 336.744 336.394C331.233 330.941 322.164 330.789 316.453 336.079Z" fill="#1B1B1B"/>
<path d="M369.349 193.518H276.058C270.326 193.518 265.693 197.976 265.693 203.469V293.028C265.693 298.521 270.326 302.979 276.058 302.979H369.349C375.081 302.979 379.715 298.521 379.715 293.028V203.469C379.715 197.976 375.081 193.518 369.349 193.518ZM327.886 273.126H307.155C301.423 273.126 296.789 268.668 296.789 263.175C296.789 257.682 301.423 253.224 307.155 253.224H327.886C333.618 253.224 338.252 257.682 338.252 263.175C338.252 268.668 333.619 273.126 327.886 273.126ZM338.252 243.273H307.155C301.423 243.273 296.79 238.815 296.79 233.322C296.79 227.829 301.423 223.371 307.155 223.371H338.252C343.984 223.371 348.618 227.829 348.618 233.322C348.618 238.815 343.984 243.273 338.252 243.273Z" fill="#06D406"/>
</g>
</g>
<defs>
<filter id="filter0_d_6_343" x="32" y="39.36" width="417" height="402.583" filterUnits="userSpaceOnUse" color-interpolation-filters="sRGB">
<feFlood flood-opacity="0" result="BackgroundImageFix"/>
<feColorMatrix in="SourceAlpha" type="matrix" values="0 0 0 0 0 0 0 0 0 0 0 0 0 0 0 0 0 0 127 0" result="hardAlpha"/>
<feOffset dy="2.26323"/>
<feComposite in2="hardAlpha" operator="out"/>
<feColorMatrix type="matrix" values="0 0 0 0 0.749935 0 0 0 0 0.749935 0 0 0 0 0.749935 0 0 0 1 0"/>
<feBlend mode="normal" in2="BackgroundImageFix" result="effect1_dropShadow_6_343"/>
<feBlend mode="normal" in="SourceGraphic" in2="effect1_dropShadow_6_343" result="shape"/>
</filter>
<linearGradient id="paint0_linear_6_343" x1="235.782" y1="-116.996" x2="839.5" y2="630.072" gradientUnits="userSpaceOnUse">
<stop offset="0.0819437" stop-color="#F7F7F7"/>
<stop offset="0.208333" stop-color="#12C2E9"/>
<stop offset="0.526042" stop-color="#C471ED"/>
<stop offset="0.9375" stop-color="#F64F59"/>
</linearGradient>
<linearGradient id="paint1_linear_6_343" x1="211.096" y1="659.193" x2="211.096" y2="1035.97" gradientUnits="userSpaceOnUse">
<stop stop-color="white"/>
<stop offset="1" stop-color="white" stop-opacity="0"/>
</linearGradient>
<linearGradient id="paint2_linear_6_343" x1="915.29" y1="751.873" x2="915.29" y2="1128.66" gradientUnits="userSpaceOnUse">
<stop stop-color="white"/>
<stop offset="0.713542" stop-color="white" stop-opacity="0.7"/>
<stop offset="1" stop-color="white" stop-opacity="0"/>
</linearGradient>
<radialGradient id="paint3_radial_6_343" cx="0" cy="0" r="1" gradientUnits="userSpaceOnUse" gradientTransform="translate(350.982 -129.884) rotate(90) scale(399.302 468.596)">
<stop stop-color="white"/>
<stop offset="1" stop-color="white" stop-opacity="0"/>
</radialGradient>
<clipPath id="clip0_6_343">
<rect width="480" height="480" fill="white"/>
</clipPath>
<clipPath id="clip1_6_343">
<rect width="855.451" height="541" fill="white" transform="translate(-141 -45)"/>
</clipPath>
</defs>
</svg>
